<?xml version="1.0" standalone="no"?>
<!DOCTYPE svg PUBLIC "-//W3C//DTD SVG 20010904//EN"
 "http://www.w3.org/TR/2001/REC-SVG-20010904/DTD/svg10.dtd">
<svg version="1.0" xmlns="http://www.w3.org/2000/svg"
 width="32.000000pt" height="32.000000pt" viewBox="0 0 32.000000 32.000000"
 preserveAspectRatio="xMidYMid meet">

<g transform="translate(0.000000,32.000000) scale(0.100000,-0.100000)"
fill="#000000" stroke="none">
<path d="M120 237 c-14 -7 -25 -21 -26 -32 -1 -16 0 -16 3 -2 3 9 10 17 18 17
10 0 11 -8 3 -40 -8 -29 -16 -40 -29 -40 -11 0 -19 -7 -19 -15 0 -8 9 -15 20
-15 15 0 22 11 31 45 12 48 32 53 23 5 -4 -18 0 -37 10 -51 9 -14 16 -18 16
-10 0 11 4 10 18 -2 10 -10 24 -17 30 -17 15 0 35 38 28 53 -2 7 -5 5 -5 -4
-1 -9 -8 -22 -17 -30 -13 -11 -15 -9 -10 17 4 16 3 23 0 17 -17 -36 -33 11
-18 51 9 23 24 20 24 -4 0 -11 -5 -20 -12 -20 -6 0 -8 -3 -5 -6 9 -9 37 15 37
31 0 7 -13 18 -30 24 -24 8 -30 7 -30 -5 0 -7 -4 -14 -10 -14 -5 0 -10 4 -10
9 0 5 -3 16 -6 24 -3 10 2 17 13 20 16 4 16 5 -2 6 -11 0 -31 -5 -45 -12z m50
-108 c0 -5 -4 -9 -10 -9 -5 0 -10 7 -10 16 0 8 5 12 10 9 6 -3 10 -10 10 -16z"/>
</g>
</svg>
